# xmcd CD database file
#
# Track frame offsets:
#	150
#	12297
#	26192
#	39065
#	49890
#	70377
#	83845
#	103012
#	116532
#	127777
#
# Disc length: 2031 seconds
#
# Revision: 0
# Processed by: cddbd v1.5.1PL2 Copyright (c) Steve Scherf et al.
# Submitted via: CDex 1.50
#
DISCID=7907ed0a
DTITLE=Howard McGhee - Nobody Knows you when You're down and out
DYEAR=1962
DGENRE=Jazz
TTITLE0=Nobody Knows you when You're down and out
TTITLE1=Lonely Town
TTITLE2=Secret Love
TTITLE3=Why Run Away
TTITLE4=Canadian Sunset
TTITLE5=Blue Bell
TTITLE6=Tenderly
TTITLE7=Fly me to the Moon
TTITLE8=Satin Doll
TTITLE9=Blues Duende
EXTD=YEAR: 1962
EXTT0=
EXTT1=
EXTT2=
EXTT3=
EXTT4=
EXTT5=
EXTT6=
EXTT7=
EXTT8=
EXTT9=
PLAYORDER=
